<?xml version="1.0" encoding="utf-8"?>
<!-- Generator: Adobe Illustrator 22.0.1, SVG Export Plug-In . SVG Version: 6.00 Build 0)  -->
<svg version="1.1" id="Capa_1" xmlns="http://www.w3.org/2000/svg" xmlns:xlink="http://www.w3.org/1999/xlink" x="0px" y="0px"
	 viewBox="0 0 512 512" style="enable-background:new 0 0 512 512;" xml:space="preserve">
<style type="text/css">
	.st0{fill:#FFAD37;}
</style>
<g>
	<g>
		<path class="st0" d="M418.1,361.4h-60.3c-12.5,0-24.7,3.2-35.6,9.4c-9.2,5.2-17.2,12.4-23.4,21c-4.1-0.7-8.3-1.1-12.5-1.1h-60.4
			c-4.2,0-8.4,0.4-12.5,1.1c-6.2-8.6-14.2-15.8-23.4-21c-10.8-6.1-23.1-9.4-35.6-9.4H94.2c-40.1,0.1-72.5,32.6-72.6,72.6v40.9
			c0,4.3,3.5,7.7,7.8,7.7h123.7v21.5c0,4.3,3.5,7.8,7.8,7.8h190.2c4.3,0,7.8-3.5,7.8-7.8v-21.5h123.7c4.3,0,7.8-3.5,7.8-7.8V434
			C490.4,394,458,361.6,418.1,361.4z M153.9,456.3v1.7c0,0.8,0,1.5,0,2.2v3.1v3.8H37.1V434c0.1-31.5,25.6-56.9,57-57h60.3
			c9.8,0,19.4,2.5,27.9,7.3c5.7,3.2,10.8,7.4,15.1,12.3C173.2,407.1,156.5,430,153.9,456.3z M343.2,463.3v33.1H168.9v-33.7
			c0-0.6,0-1.2,0-1.8c0-0.9,0-1.9,0-2.8v-1.4c0-0.5,0-1.1,0-1.6v-1.7v-0.5v-0.6v-1.2l0.3-1.3l0.5-1.9l0.4-1.3
			c7.7-23.4,29.6-39.3,54.2-39.4l1.6-0.9h60.4c28.6,0.1,52.8,21.4,56.5,49.8c0,1.2,0,2.4,0.3,3.6
			C343.2,460.9,343.2,462.1,343.2,463.3z M475.1,467.1H358.9v-4.7c0-0.6,0-1.2,0-1.8c0-0.6,0-1.2,0-1.8c0-0.9,0-1.8,0-2.6v-0.8v-0.9
			v-1.7v-0.3v-0.6v-0.6v-0.4v-0.7v-0.8v-0.4v-0.5v-0.5v-0.5v-1.2v-0.5v-0.7v-0.7l-0.4-1.3v-0.5v-0.5v-0.4v-0.5v-0.7l-0.8-2.1
			c-7-18.6-21.3-33.6-39.6-41.5c3.2-4.8,7.2-9.1,11.7-12.7c8.5-4.8,18.1-7.3,27.9-7.3h60.4c31.5,0.1,56.9,25.6,57,57V467.1z"/>
	</g>
</g>
<g>
	<g>
		<circle class="st0" cx="256.4" cy="104.7" r="8.8"/>
	</g>
</g>
<g>
	<g>
		<path class="st0" d="M163.1,254.4c-10.3-10.3-24.3-16.2-38.8-16.1c-30.3,0-55,24.5-55,54.9c0,30.3,24.5,55,54.9,55
			s55-24.5,55-54.9C179.2,278.7,173.4,264.8,163.1,254.4z M152.1,321c-15.4,15.4-40.3,15.4-55.6,0c-15.4-15.4-15.4-40.3,0-55.6
			c15.4-15.4,40.3-15.4,55.6,0c7.4,7.4,11.5,17.4,11.5,27.8C163.6,303.6,159.5,313.6,152.1,321z"/>
	</g>
</g>
<g>
	<g>
		<circle class="st0" cx="313.5" cy="104.7" r="8.8"/>
	</g>
</g>
<g>
	<g>
		<path class="st0" d="M348,30.6c-26.3-20.2-58.7-31-91.9-30.6c-33.2-0.4-65.6,10.3-91.9,30.6c-24.1,19.3-39,46.1-39,75.7
			c0,15.1,3.9,29.9,11.1,43c6.9,12.5,16.2,23.4,27.4,32.3l-6.2,41.2c-0.6,4.2,2.3,8.2,6.5,8.8c1.8,0.3,3.5-0.1,5.1-1l42.1-24.5
			c6.7,2,13.5,3.5,20.3,4.6c8.2,1.3,16.4,1.9,24.6,1.9c33.2,0.4,65.6-10.3,91.9-30.6c24-19.3,39-46.1,39-75.7S372.1,49.8,348,30.6z
			 M338.3,169.9c-23.6,18-52.6,27.4-82.2,26.9c-7.4,0-14.9-0.5-22.2-1.7c-7.3-1.1-14.5-2.8-21.5-5c-2.1-0.7-4.4-0.4-6.2,0.7
			L175.4,209l4.5-29.6c0.4-2.9-0.8-5.8-3.2-7.5c-11-8-20.2-18.3-26.9-30.1c-6-10.9-9.1-23.1-9.1-35.5c0-24.7,12.6-47.2,33.1-63.6
			c23.6-18,52.6-27.4,82.2-26.9c29.6-0.5,58.6,8.9,82.2,26.9c20.4,16.1,33.1,38.8,33.1,63.6S358.8,153.5,338.3,169.9z"/>
	</g>
</g>
<g>
	<g>
		<path class="st0" d="M388,238.3c-30.3,0-55,24.5-55,54.9c0,14.6,5.8,28.5,16,38.8c10.3,10.3,24.3,16.2,38.8,16.1
			c30.3,0,55-24.5,55-54.9C442.9,262.9,418.3,238.3,388,238.3z M415.7,321c-15.4,15.4-40.3,15.4-55.6,0
			c-7.4-7.4-11.5-17.4-11.5-27.8c0-10.4,4.1-20.4,11.5-27.8c15.4-15.4,40.3-15.4,55.6,0C431.1,280.7,431.1,305.6,415.7,321z"/>
	</g>
</g>
<g>
	<g>
		<circle class="st0" cx="199.4" cy="104.7" r="8.8"/>
	</g>
</g>
<g>
	<g>
		<path class="st0" d="M294.9,283.6c-10.3-10.3-24.2-16-38.8-16c-14.6,0-28.6,5.8-38.8,16.1c-21.4,21.5-21.3,56.2,0.1,77.6
			s56.2,21.3,77.6-0.1C316.4,339.7,316.3,305,294.9,283.6z M256.1,361.9c-21.7,0-39.3-17.6-39.3-39.3c0-21.7,17.6-39.3,39.3-39.3
			c10.4,0,20.4,4.1,27.8,11.5c7.4,7.4,11.5,17.4,11.5,27.8C295.4,344.3,277.8,361.9,256.1,361.9z"/>
	</g>
</g>
</svg>
