<?xml version="1.0" encoding="UTF-8"?>
<svg width="200px" height="200px" viewBox="0 0 200 200" version="1.1" xmlns="http://www.w3.org/2000/svg" xmlns:xlink="http://www.w3.org/1999/xlink">
    <!-- Generator: Sketch 50.2 (55047) - http://www.bohemiancoding.com/sketch -->
    <title>Artboard</title>
    <desc>Created with Sketch.</desc>
    <defs></defs>
    <g id="Artboard" stroke="none" stroke-width="1" fill="none" fill-rule="evenodd">
        <g id="bellboy" transform="translate(25.000000, 15.000000)" fill="#FFAD37" fill-rule="nonzero">
            <path d="M111.449668,89.7013274 C115.345022,83.2738938 117.590044,75.7397124 117.590044,67.6908186 L117.590044,0 L32.4099558,0 L32.4099558,67.6908186 C32.4099558,75.7397124 34.6549779,83.2738938 38.5506637,89.7013274 L38.5503319,89.7013274 C17.4029867,89.7013274 0.198451327,106.906195 0.198451327,128.053208 L0.198451327,169.911173 L149.801549,169.911173 L149.801549,128.05354 C149.801217,106.906195 132.59635,89.7013274 111.449668,89.7013274 Z M42.3401549,9.93053097 L107.65885,9.93053097 L107.65885,29.395354 L42.3401549,29.395354 L42.3401549,9.93053097 Z M107.659513,39.3255531 L107.659513,46.5056416 L107.659181,46.5056416 C102.962058,48.7390487 97.6134956,49.9134956 92.0210177,49.9134956 C81.6222345,49.9134956 72.2206858,45.7845133 66.8313053,39.3255531 L107.659513,39.3255531 Z M42.3401549,39.3252212 L55.0835177,39.3252212 L55.0835177,39.3255531 C55.0931416,39.3454646 55.1024336,39.3653761 55.1120575,39.3849558 C52.4007743,44.3764381 47.7610619,47.9352876 42.3401549,49.2982301 L42.3401549,39.3252212 Z M42.3401549,59.4335177 C49.9566372,58.1764381 56.7345133,54.0660398 61.352323,47.9810841 C63.328208,49.9486726 65.5788717,51.7330752 68.0691372,53.2752212 C75.0089602,57.5724558 83.2911504,59.8443584 92.020354,59.8443584 C97.4678097,59.8443584 102.758628,58.9473451 107.658518,57.227323 L107.658518,67.6914823 C107.658518,85.7001106 93.0073009,100.351327 74.9990044,100.351327 C56.990708,100.351327 42.3394912,85.7001106 42.3394912,67.6914823 L42.3394912,59.4335177 L42.3401549,59.4335177 Z M10.1289823,159.980973 L10.1289823,128.05354 C10.1289823,112.381858 22.8789823,99.6321903 38.5503319,99.6321903 L46.8607301,99.6321903 C54.3700221,106.255752 64.2232301,110.281195 74.9996681,110.281195 C85.7761062,110.281195 95.6293142,106.255752 103.138606,99.6321903 L111.449004,99.6321903 C127.120686,99.6321903 139.870354,112.38219 139.870354,128.05354 L139.870354,159.980973 L10.1289823,159.980973 Z" id="Shape"></path>
            <rect id="Rectangle-path" x="62.0897124" y="140.102655" width="25.8192478" height="9.93053097"></rect>
            <rect id="Rectangle-path" x="62.0897124" y="120.228319" width="25.8192478" height="9.93053097"></rect>
        </g>
    </g>
</svg>