<?xml version="1.0" encoding="utf-8"?>
<!-- Generator: Adobe Illustrator 22.0.1, SVG Export Plug-In . SVG Version: 6.00 Build 0)  -->
<svg version="1.1" id="Capa_1" xmlns="http://www.w3.org/2000/svg" xmlns:xlink="http://www.w3.org/1999/xlink" x="0px" y="0px"
	 viewBox="0 0 512 512" style="enable-background:new 0 0 512 512;" xml:space="preserve">
<style type="text/css">
	.st0{fill:#FFAD37;}
</style>
<g>
	<g>
		<rect x="82.3" y="301.7" class="st0" width="36.6" height="18.3"/>
		<rect x="219.4" y="301.7" class="st0" width="36.6" height="18.3"/>
		<rect x="219.4" y="265.1" class="st0" width="36.6" height="18.3"/>
		<rect x="219.4" y="228.6" class="st0" width="36.6" height="18.3"/>
		<rect x="219.4" y="192" class="st0" width="36.6" height="18.3"/>
		<rect x="219.4" y="155.4" class="st0" width="82.3" height="18.3"/>
		<rect x="219.4" y="118.9" class="st0" width="82.3" height="18.3"/>
		<rect x="219.4" y="82.3" class="st0" width="82.3" height="18.3"/>
		<rect x="219.4" y="45.7" class="st0" width="82.3" height="18.3"/>
		<rect x="82.3" y="338.3" class="st0" width="36.6" height="18.3"/>
		<rect x="219.4" y="338.3" class="st0" width="36.6" height="18.3"/>
		<rect x="82.3" y="374.9" class="st0" width="36.6" height="18.3"/>
		<rect x="219.4" y="374.9" class="st0" width="36.6" height="18.3"/>
		<rect x="82.3" y="411.4" class="st0" width="36.6" height="18.3"/>
		<rect x="219.4" y="411.4" class="st0" width="36.6" height="18.3"/>
		<rect x="128" y="301.7" class="st0" width="36.6" height="18.3"/>
		<rect x="265.1" y="301.7" class="st0" width="36.6" height="18.3"/>
		<rect x="265.1" y="265.1" class="st0" width="36.6" height="18.3"/>
		<rect x="265.1" y="228.6" class="st0" width="36.6" height="18.3"/>
		<rect x="265.1" y="192" class="st0" width="36.6" height="18.3"/>
		<rect x="128" y="338.3" class="st0" width="36.6" height="18.3"/>
		<rect x="265.1" y="338.3" class="st0" width="36.6" height="18.3"/>
		<rect x="128" y="374.9" class="st0" width="36.6" height="18.3"/>
		<rect x="265.1" y="374.9" class="st0" width="36.6" height="18.3"/>
		<rect x="128" y="411.4" class="st0" width="36.6" height="18.3"/>
		<rect x="265.1" y="411.4" class="st0" width="36.6" height="18.3"/>
		<path class="st0" d="M457.1,201.1H338.3V9.1c0-5-4.1-9.1-9.1-9.1H192c-5.1,0-9.1,4.1-9.1,9.1V256h-128c-5.1,0-9.1,4.1-9.1,9.1
			v237.7c0,5,4.1,9.1,9.1,9.1h36.6h64H192h36.6h64h36.6h36.6h54.9h36.6c5.1,0,9.1-4.1,9.1-9.1V210.3
			C466.3,205.2,462.2,201.1,457.1,201.1z M64,274.3h118.9v219.4h-18.3v-36.6c0-5-4.1-9.1-9.1-9.1h-64c-5.1,0-9.1,4.1-9.1,9.1v36.6
			H64V274.3z M100.6,493.7v-27.4h45.7v27.4H100.6z M201.1,265.1V18.3H320v192v283.4h-18.3v-36.6c0-5-4.1-9.1-9.1-9.1h-64
			c-5.1,0-9.1,4.1-9.1,9.1v36.6h-18.3V265.1z M237.7,493.7v-27.4h45.7v27.4H237.7z M374.9,493.7v-18.3h36.6v18.3H374.9z M448,493.7
			h-18.3v-27.4c0-5-4.1-9.1-9.1-9.1h-54.9c-5.1,0-9.1,4.1-9.1,9.1v27.4h-18.3V219.4H448V493.7z"/>
		<rect x="356.6" y="237.7" class="st0" width="18.3" height="54.9"/>
		<rect x="356.6" y="310.9" class="st0" width="18.3" height="54.9"/>
		<rect x="356.6" y="384" class="st0" width="18.3" height="54.9"/>
		<rect x="411.4" y="237.7" class="st0" width="18.3" height="54.9"/>
		<rect x="411.4" y="310.9" class="st0" width="18.3" height="54.9"/>
		<rect x="411.4" y="384" class="st0" width="18.3" height="54.9"/>
		<rect x="384" y="237.7" class="st0" width="18.3" height="54.9"/>
		<rect x="384" y="310.9" class="st0" width="18.3" height="54.9"/>
		<rect x="384" y="384" class="st0" width="18.3" height="54.9"/>
	</g>
</g>
</svg>
