<svg enable-background="new 0 0 485 485" height="512" viewBox="0 0 485 485" width="512" xmlns="http://www.w3.org/2000/svg"><g fill="#fff" transform="matrix(0 1 -1 0 485 0)"><path d="m413.974 71.026c-45.803-45.801-106.7-71.026-171.474-71.026s-125.671 25.225-171.474 71.026c-45.801 45.803-71.026 106.7-71.026 171.474s25.225 125.671 71.026 171.474c45.803 45.801 106.7 71.026 171.474 71.026s125.671-25.225 171.474-71.026c45.801-45.803 71.026-106.7 71.026-171.474s-25.225-125.671-71.026-171.474zm-171.474 383.974c-117.173 0-212.5-95.327-212.5-212.5s95.327-212.5 212.5-212.5 212.5 95.327 212.5 212.5-95.327 212.5-212.5 212.5z"/><path d="m193.228 135.589 106.563 106.911-106.563 106.911 21.248 21.178 127.672-128.089-127.672-128.089z"/></g></svg>